<?xml version="1.0" standalone="no"?>
<!DOCTYPE svg PUBLIC "-//W3C//DTD SVG 20010904//EN"
 "http://www.w3.org/TR/2001/REC-SVG-20010904/DTD/svg10.dtd">
<svg version="1.0" xmlns="http://www.w3.org/2000/svg"
 width="518.000000pt" height="518.000000pt" viewBox="0 0 518.000000 518.000000"
 preserveAspectRatio="xMidYMid meet">
<metadata>
Created by potrace 1.14, written by Peter Selinger 2001-2017
</metadata>
<g transform="translate(0.000000,518.000000) scale(0.100000,-0.100000)"
fill="#000000" stroke="none">
<path d="M0 2590 l0 -2590 2590 0 2590 0 0 2590 0 2590 -2590 0 -2590 0 0
-2590z m3195 2036 c335 -59 659 -201 935 -412 208 -159 487 -474 420 -474 -6
0 -83 -53 -170 -117 -88 -65 -220 -162 -294 -215 l-134 -97 -99 97 c-121 119
-227 195 -372 268 -163 82 -275 111 -462 121 -182 9 -358 -16 -530 -76 -124
-43 -323 -152 -394 -217 -22 -20 -49 -44 -60 -53 -21 -18 -85 -88 -123 -137
-47 -59 -110 -174 -167 -306 -78 -181 -97 -520 -42 -723 46 -165 96 -265 198
-390 145 -178 338 -315 546 -386 123 -42 168 -50 333 -57 l145 -7 -75 -19
c-110 -27 -346 -33 -475 -12 -445 73 -808 334 -1024 738 -46 86 -107 262 -128
368 -21 109 -35 307 -27 370 4 30 9 46 11 35 2 -11 7 -27 10 -35 3 -8 5 -25 4
-38 -3 -26 16 -55 30 -46 5 3 9 -3 9 -13 0 -15 2 -16 10 -3 6 10 10 11 10 3 0
-8 15 -13 40 -13 36 0 40 -2 40 -25 0 -22 4 -25 40 -25 28 0 40 -4 40 -15 0
-11 -18 -15 -82 -18 l-83 -3 83 -2 c77 -2 83 -1 92 21 8 20 9 21 10 2 1 -18 2
-17 11 4 12 29 47 61 67 61 12 0 14 10 8 55 -8 70 0 105 24 105 11 0 22 5 25
10 10 17 -5 70 -21 70 -17 0 -18 22 -2 38 9 9 15 6 25 -16 11 -22 12 -23 9 -4
-2 12 0 20 5 16 5 -3 9 -13 10 -22 0 -11 2 -12 6 -4 3 7 -2 23 -10 35 -21 32
-24 197 -3 197 8 0 26 24 40 54 26 55 100 170 134 209 84 96 160 169 238 228
50 38 94 69 98 69 4 0 22 11 39 24 18 13 42 27 55 31 12 3 22 10 22 15 0 4 11
11 24 14 13 3 57 21 97 39 101 46 119 53 234 82 128 33 294 55 407 55 57 0 87
4 83 10 -3 6 -25 11 -48 11 l-42 2 38 10 c36 10 51 27 23 27 -20 0 -27 27 -10
40 8 7 14 9 14 4 1 -5 10 2 20 15 12 14 20 38 20 62 0 21 5 39 10 39 6 0 10
18 10 40 0 22 5 40 10 40 6 0 10 18 10 40 0 22 4 40 9 40 5 0 7 -10 4 -22 -7
-27 -1 -23 17 11 8 15 8 21 1 17 -6 -4 -11 -3 -11 3 0 6 -17 15 -37 20 -59 15
-324 41 -418 41 l-86 0 12 23 c7 12 20 28 31 35 26 19 23 27 -19 39 l-38 11
40 -5 c22 -3 48 -10 58 -15 10 -5 17 -5 17 1 0 5 12 12 28 14 18 3 11 5 -23 7
-33 3 -15 6 55 9 129 7 295 -2 415 -23z m-1958 -1468 c-3 -8 -6 -5 -6 6 -1 11
2 17 5 13 3 -3 4 -12 1 -19z m33 0 c0 -19 -2 -20 -10 -8 -13 19 -13 30 0 30 6
0 10 -10 10 -22z m320 -49 c0 -5 -4 -9 -10 -9 -5 0 -10 7 -10 16 0 8 5 12 10
9 6 -3 10 -10 10 -16z m-330 -24 c0 -5 -5 -3 -10 5 -5 8 -10 20 -10 25 0 6 5
3 10 -5 5 -8 10 -19 10 -25z m-35 -32 c-9 -37 -18 -20 -9 19 4 18 9 27 11 20
3 -7 2 -24 -2 -39z m-392 -1360 c133 -204 372 -454 547 -573 19 -13 37 -27 40
-30 3 -3 47 -32 98 -64 470 -295 1019 -394 1515 -274 48 12 87 25 87 30 0 4 7
8 15 8 8 0 15 5 15 10 0 6 -6 10 -14 10 -7 0 -16 9 -19 20 -3 11 -1 18 3 15 5
-3 11 -1 15 5 3 5 1 10 -4 10 -6 0 -11 7 -11 15 0 8 -6 15 -13 15 -7 0 -13 10
-14 22 -2 24 -20 39 -40 31 -9 -3 -13 3 -13 20 0 36 -10 57 -26 57 -10 0 -14
12 -14 39 0 33 -5 42 -32 59 l-32 21 27 6 c15 4 31 13 35 20 4 7 60 33 124 59
219 87 369 187 544 361 66 66 142 148 169 183 26 34 53 62 59 62 6 0 103 -45
216 -101 113 -55 260 -128 328 -161 67 -32 122 -65 122 -72 0 -7 -9 -21 -20
-31 -11 -10 -20 -22 -20 -26 0 -10 1 -8 -102 -134 -330 -401 -780 -661 -1298
-751 -120 -21 -442 -29 -579 -15 -680 71 -1310 463 -1662 1032 -57 92 -179
327 -179 344 0 5 20 -27 44 -72 25 -45 64 -113 89 -150z"/>
<path d="M1680 3350 c0 -5 5 -10 11 -10 5 0 7 5 4 10 -3 6 -8 10 -11 10 -2 0
-4 -4 -4 -10z"/>
<path d="M1802 3230 c-19 -32 -13 -47 8 -20 11 14 20 28 20 33 0 14 -15 7 -28
-13z"/>
<path d="M1770 3145 c0 -8 2 -15 4 -15 2 0 6 7 10 15 3 8 1 15 -4 15 -6 0 -10
-7 -10 -15z"/>
<path d="M1690 3090 c0 -5 5 -10 10 -10 6 0 10 5 10 10 0 6 -4 10 -10 10 -5 0
-10 -4 -10 -10z"/>
<path d="M1720 3062 c-8 -15 -16 -30 -18 -34 -2 -5 0 -8 5 -8 10 0 37 59 31
66 -3 2 -11 -8 -18 -24z"/>
<path d="M1686 2994 c-4 -9 -4 -19 -1 -22 2 -3 7 3 11 12 4 9 4 19 1 22 -2 3
-7 -3 -11 -12z"/>
<path d="M1601 2924 c0 -11 3 -14 6 -6 3 7 2 16 -1 19 -3 4 -6 -2 -5 -13z"/>
<path d="M1650 2930 c0 -5 4 -10 9 -10 6 0 13 5 16 10 3 6 -1 10 -9 10 -9 0
-16 -4 -16 -10z"/>
<path d="M1490 2692 c0 -5 7 -9 15 -9 8 0 15 4 15 9 0 4 -7 8 -15 8 -8 0 -15
-4 -15 -8z"/>
</g>
</svg>
